<svg width="92" height="93" viewBox="0 0 92 93" fill="none" xmlns="http://www.w3.org/2000/svg">
<path d="M13.8572 65.7858L26.7143 27.2144H31L43.8572 65.7858" stroke="#001D1E" stroke-width="2" stroke-linejoin="round"/>
<path d="M18.1428 50.7856H39.5714" stroke="#001D1E" stroke-width="2" stroke-linejoin="round"/>
<path d="M76 61.5001C76 61.5001 71.0886 63.643 66.5328 63.643C59.6114 63.643 54.5714 56.0144 54.5714 50.7859C54.5714 44.3573 57.5886 37.9287 67.4286 37.9287C74.2857 37.9287 76 45.2744 76 48.643H54.5714" stroke="#001D1E" stroke-width="2" stroke-linejoin="round"/>
<path d="M1 14.3571C1 10.9472 2.35459 7.67695 4.76577 5.26577C7.17695 2.85459 10.4472 1.5 13.8571 1.5H78.1429C81.5528 1.5 84.823 2.85459 87.2342 5.26577C89.6454 7.67695 91 10.9472 91 14.3571V78.6429C91 82.0528 89.6454 85.323 87.2342 87.7342C84.823 90.1454 81.5528 91.5 78.1429 91.5H13.8571C10.4472 91.5 7.17695 90.1454 4.76577 87.7342C2.35459 85.323 1 82.0528 1 78.6429V14.3571Z" stroke="#001D1E" stroke-width="2" stroke-linejoin="round"/>
</svg>
