<svg width="120" height="95" viewBox="0 0 120 95" fill="none" xmlns="http://www.w3.org/2000/svg">
<path d="M113.704 39.8543L113.704 39.8546C116.311 43.9316 117.976 48.3691 118.659 53.0463C119.009 55.465 119.091 57.908 118.9 60.3065C118.693 62.7895 118.203 65.2426 117.438 67.6204C115.89 72.4268 113.28 76.8429 109.669 80.7436C105.922 84.7799 101.338 87.9994 96.0393 90.3081C90.4287 92.7423 84.3946 93.9852 78.0981 94H78.041C71.7647 94 65.75 92.7766 60.1578 90.37C54.8689 88.0889 50.2835 84.8827 46.5217 80.8451C42.9076 76.9657 40.294 72.5584 38.7431 67.7486C37.9934 65.4106 37.5271 62.5388 37.5036 61.1751C37.4914 60.3079 37.6018 59.075 37.6981 58.1995L37.9606 55.8113L36.0811 57.3079L13.5032 75.2866C13.5024 75.2872 13.5017 75.2878 13.501 75.2883C11.615 76.77 9.38474 77.5652 7.23254 77.5652C5.0457 77.5652 3.27872 76.7538 2.16904 75.3693L2.16895 75.3692C1.23844 74.2085 0.840379 72.7452 1.05812 71.0857L1.05813 71.0857C1.34724 68.881 2.70143 66.6696 4.85067 65.0635L5.00743 64.9519L5.01193 64.9487L46.831 34.8449L49.3573 33.0262L46.2445 33.0333L41.6028 33.0438H41.6027L41.3393 33.0444C36.5595 33.0556 31.7753 33.0669 27.0118 33.0669C27.0115 33.0669 27.0113 33.0669 27.0111 33.0669L23.4991 33.0646H23.4985C21.5469 33.0646 19.8609 32.3059 18.7074 30.9664C17.604 29.684 17.1418 28.0431 17.4058 26.6059L17.4059 26.6054C17.7257 24.8588 18.6512 23.4822 20.0779 22.5248C21.5214 21.5562 23.5275 20.9868 26.0171 20.9867C26.0173 20.9867 26.0175 20.9867 26.0178 20.9867L72.0944 21.0171L75.0386 21.0191L72.7046 19.2244C70.3023 17.3772 67.8874 15.4791 65.5393 13.6325L65.5391 13.6323L65.4887 13.5927C63.0902 11.7073 60.6897 9.82032 58.2831 7.97255C57.251 7.14116 56.8033 6.16111 56.8411 5.22771C56.8834 4.21269 57.4905 3.14784 58.7743 2.27525L58.7761 2.27403C59.9608 1.46502 61.5193 1 63.1643 1C64.8091 1 66.2831 1.46437 67.3331 2.24701L67.3461 2.25667L67.3593 2.2659C67.3612 2.26724 67.363 2.26863 67.3647 2.27008L67.3901 2.29183L67.4169 2.31184L104.388 29.9414L105.014 30.4247C108.508 33.1244 111.43 36.2953 113.704 39.8543ZM88.6243 61.3108L88.6237 61.3113C86.1232 63.6991 82.532 65.2189 78.4879 65.2189C74.4457 65.2189 70.8537 63.6992 68.3521 61.3112L68.3519 61.3109C65.8973 58.9694 64.5299 55.8389 64.7188 52.4927C64.9042 49.2383 66.5358 46.3391 69.0404 44.2661C71.5049 42.2263 74.833 40.968 78.4876 40.968C82.1426 40.968 85.4699 42.2266 87.9348 44.2662L87.9349 44.2662C90.4411 46.3396 92.0731 49.2368 92.2603 52.4908C92.45 55.8386 91.0801 58.9692 88.6243 61.3108ZM51.9336 54.3899C51.9336 67.3655 63.9688 77.6562 78.5095 77.6562C93.0504 77.6562 105.085 67.3655 105.084 54.3899C105.084 41.4157 93.0504 31.1251 78.5095 31.1251C63.9691 31.1251 51.9336 41.4157 51.9336 54.3899Z" stroke="#001D1E" stroke-width="2"/>
</svg>
