<svg width="92" height="93" viewBox="0 0 92 93" fill="none" xmlns="http://www.w3.org/2000/svg">
<path d="M80.0789 77.6349C79.9723 78.3395 79.6737 79.002 79.2151 79.5515C78.7565 80.101 78.1552 80.5167 77.4757 80.7539L47.3174 91.2761C46.4624 91.5746 45.5297 91.5746 44.6746 91.2761L14.5163 80.7539C13.8369 80.5167 13.2356 80.101 12.777 79.5515C12.3184 79.002 12.0198 78.3395 11.9132 77.6349L1.0443 6.00784C0.959195 5.44946 0.997014 4.8795 1.15517 4.3369C1.31332 3.7943 1.58808 3.29185 1.96068 2.86387C2.33328 2.4359 2.79493 2.09249 3.31409 1.85711C3.83326 1.62172 4.39769 1.49992 4.96884 1.50001H87.0232C87.595 1.49879 88.1604 1.61976 88.6805 1.85465C89.2006 2.08953 89.6633 2.43279 90.0367 2.86089C90.4102 3.289 90.6857 3.79185 90.8443 4.33501C91.0029 4.87817 91.0409 5.44881 90.9557 6.00784L80.0789 77.6349Z" stroke="#001D1E" stroke-width="2" stroke-linecap="round" stroke-linejoin="round"/>
<path d="M24.1707 17.1929H60.6781C61.1123 17.1927 61.5345 17.3334 61.88 17.5932C62.2255 17.8531 62.4753 18.2178 62.5911 18.6315C62.7069 19.0452 62.6822 19.485 62.5208 19.8835C62.3595 20.2819 62.0704 20.6171 61.698 20.8376L34.3174 37.0917C33.9468 37.3129 33.6596 37.648 33.4996 38.0457C33.3395 38.4434 33.3154 38.8819 33.431 39.2944C33.5465 39.7069 33.7954 40.0707 34.1395 40.3303C34.4837 40.59 34.9043 40.7312 35.3372 40.7325H61.6027C61.8871 40.7324 62.1682 40.7928 62.4269 40.9096C62.6856 41.0263 62.9159 41.1967 63.1022 41.4092C63.2884 41.6216 63.4264 41.8712 63.5066 42.1409C63.5868 42.4107 63.6074 42.6943 63.567 42.9726L60.1027 66.9359C60.0491 67.3118 59.8864 67.6642 59.6342 67.9504C59.382 68.2366 59.0513 68.4443 58.6821 68.5484L46.5752 71.9656C46.2201 72.0676 45.843 72.0676 45.4879 71.9656L33.3492 68.5366C32.9874 68.4344 32.6625 68.2326 32.4124 67.9547C32.1623 67.6769 31.9972 67.3344 31.9365 66.9673L30.123 56.4255" stroke="#001D1E" stroke-width="2" stroke-linecap="round" stroke-linejoin="round"/>
</svg>
