<svg width="78" height="93" viewBox="0 0 78 93" fill="none" xmlns="http://www.w3.org/2000/svg">
<path d="M43.7676 46.4896C43.7676 49.4246 45.189 52.2395 47.7192 54.3149C50.2494 56.3903 53.6811 57.5563 57.2594 57.5563C60.8376 57.5563 64.2693 56.3903 66.7995 54.3149C69.3297 52.2395 70.7511 49.4246 70.7511 46.4896C70.7511 43.5545 69.3297 40.7396 66.7995 38.6642C64.2693 36.5888 60.8376 35.4229 57.2594 35.4229C53.6811 35.4229 50.2494 36.5888 47.7192 38.6642C45.189 40.7396 43.7676 43.5545 43.7676 46.4896Z" stroke="black" stroke-width="2" stroke-linecap="round" stroke-linejoin="round"/>
<path d="M39 31.5131H20.7408C18.2613 31.6169 15.7819 31.3061 13.4535 30.5993C11.1251 29.8925 8.99625 28.8047 7.19647 27.4019C5.39669 25.9991 3.96358 24.3107 2.98429 22.4393C2.005 20.568 1.5 18.5528 1.5 16.5163C1.5 14.4798 2.005 12.4646 2.98429 10.5933C3.96358 8.72191 5.39669 7.0335 7.19647 5.6307C8.99625 4.22791 11.1251 3.14006 13.4535 2.4333C15.7819 1.72655 18.2613 1.41566 20.7408 1.51955H39V31.5131Z" stroke="black" stroke-width="2" stroke-linecap="round" stroke-linejoin="round"/>
<path d="M39 31.5131H57.2592C59.7387 31.6169 62.2181 31.3061 64.5465 30.5993C66.8749 29.8925 69.0037 28.8047 70.8035 27.4019C72.6033 25.9991 74.0364 24.3107 75.0157 22.4393C75.995 20.568 76.5 18.5528 76.5 16.5163C76.5 14.4798 75.995 12.4646 75.0157 10.5933C74.0364 8.72191 72.6033 7.0335 70.8035 5.6307C69.0037 4.22791 66.8749 3.14006 64.5465 2.4333C62.2181 1.72655 59.7387 1.41566 57.2592 1.51955H39V31.5131Z" stroke="black" stroke-width="2" stroke-linecap="round" stroke-linejoin="round"/>
<path d="M39.0001 61.4666H20.7409C15.8983 61.4666 11.254 59.8886 7.82969 57.0799C4.40542 54.2711 2.48169 50.4616 2.48169 46.4894C2.48169 42.5172 4.40542 38.7077 7.82969 35.8989C11.254 33.0902 15.8983 31.5122 20.7409 31.5122H39.0001V61.4666Z" stroke="black" stroke-width="2" stroke-linecap="round" stroke-linejoin="round"/>
<path d="M38.9999 76.4836C38.9999 79.4552 37.925 82.36 35.9113 84.8303C33.8976 87.3006 31.0356 89.2252 27.6877 90.3606C24.3398 91.496 20.6564 91.7911 17.1039 91.2085C13.5515 90.6259 10.2896 89.1918 7.73121 87.0879C5.17286 84.9839 3.43307 82.3046 2.73208 79.3891C2.0311 76.4737 2.40045 73.4532 3.79337 70.71C5.18629 67.9668 7.54014 65.6243 10.557 63.979C13.5738 62.3337 17.1179 61.4596 20.7407 61.4673H38.9999V76.4836Z" stroke="black" stroke-width="2" stroke-linecap="round" stroke-linejoin="round"/>
</svg>
