<svg width="92" height="93" viewBox="0 0 92 93" fill="none" xmlns="http://www.w3.org/2000/svg">
<path d="M80.0893 77.6355C79.9824 78.3405 79.6831 79.0034 79.2237 79.5529C78.7643 80.1025 78.1621 80.5179 77.4819 80.7545L47.3196 91.2768C46.4656 91.5744 45.5344 91.5744 44.6804 91.2768L14.5181 80.7545C13.8386 80.5173 13.2372 80.1016 12.7786 79.5521C12.3199 79.0026 12.0212 78.34 11.9146 77.6355L1.0443 6.00787C0.95919 5.44948 0.997013 4.87952 1.15519 4.33691C1.31336 3.79431 1.58816 3.29185 1.96081 2.86387C2.33346 2.4359 2.79517 2.09248 3.3144 1.8571C3.83363 1.62172 4.39814 1.49991 4.96937 1.5H87.0306C87.6019 1.49991 88.1664 1.62172 88.6856 1.8571C89.2048 2.09248 89.6665 2.4359 90.0392 2.86387C90.4118 3.29185 90.6866 3.79431 90.8448 4.33691C91.003 4.87952 91.0408 5.44948 90.9557 6.00787L80.0893 77.6355Z" stroke="#001D1E" stroke-width="2" stroke-linecap="round" stroke-linejoin="round"/>
<path d="M67.826 17.1929H26.5155C26.2268 17.1923 25.9414 17.2541 25.6792 17.3739C25.4171 17.4937 25.1846 17.6686 24.9979 17.8864C24.8112 18.1042 24.6748 18.3596 24.5983 18.6349C24.5219 18.9102 24.5071 19.1986 24.555 19.4802L27.8649 39.0966C27.9428 39.554 28.1821 39.9692 28.5402 40.2687C28.8984 40.5682 29.3524 40.7326 29.8215 40.7327H61.5713C61.8574 40.7298 62.1407 40.7881 62.4018 40.9036C62.663 41.0191 62.8958 41.1891 63.0843 41.4019C63.2728 41.6147 63.4125 41.8652 63.4938 42.1364C63.5752 42.4075 63.5963 42.6929 63.5556 42.9728L60.0909 66.9363C60.0376 67.3117 59.8754 67.6637 59.624 67.9499C59.3725 68.2361 59.0426 68.4441 58.6741 68.5488L46.5655 71.966C46.2089 72.0668 45.8308 72.0668 45.4741 71.966L33.3338 68.537C32.972 68.4348 32.6471 68.233 32.397 67.9551C32.1468 67.6773 31.9817 67.3348 31.9209 66.9677L30.1231 56.4258" stroke="#001D1E" stroke-width="2" stroke-linecap="round" stroke-linejoin="round"/>
</svg>
