<svg width="92" height="93" viewBox="0 0 92 93" fill="none" xmlns="http://www.w3.org/2000/svg">
<path d="M4.91304 1.5H87.087C87.087 1.5 91 1.5 91 5.41304V87.587C91 87.587 91 91.5 87.087 91.5H4.91304C4.91304 91.5 1 91.5 1 87.587V5.41304C1 5.41304 1 1.5 4.91304 1.5Z" stroke="#001D1E" stroke-width="2" stroke-linecap="round" stroke-linejoin="round"/>
<path d="M40.1304 44.5283V68.0066C40.1304 70.0822 39.3059 72.0728 37.8382 73.5405C36.3706 75.0081 34.38 75.8327 32.3044 75.8327C30.2288 75.8327 28.2382 75.0081 26.7705 73.5405C25.3028 72.0728 24.4783 70.0822 24.4783 68.0066" stroke="#001D1E" stroke-width="2" stroke-linecap="round" stroke-linejoin="round"/>
<path d="M63.6087 44.5283H55.2113C53.5774 44.5289 51.9916 45.081 50.7106 46.0952C49.4297 47.1094 48.5285 48.5263 48.1532 50.1164C47.7778 51.7066 47.9502 53.3769 48.6425 54.8568C49.3347 56.3368 50.5063 57.5398 51.9674 58.2709L59.5978 62.0861C61.0611 62.8162 62.2348 64.0192 62.9286 65.5C63.6224 66.9808 63.7955 68.6525 63.42 70.2441C63.0444 71.8357 62.1421 73.2537 60.8595 74.2681C59.5769 75.2825 57.9892 75.8338 56.3539 75.8327H47.9565" stroke="#001D1E" stroke-width="2" stroke-linecap="round" stroke-linejoin="round"/>
</svg>
