<svg width="92" height="93" viewBox="0 0 92 93" fill="none" xmlns="http://www.w3.org/2000/svg">
<g opacity="0.9">
<path d="M24.5714 65.7858V48.6429M24.5714 48.6429V27.2144H35.2857C38.1273 27.2144 40.8525 28.3432 42.8618 30.3525C44.8712 32.3618 46 35.087 46 37.9286C46 40.7702 44.8712 43.4955 42.8618 45.5048C40.8525 47.5141 38.1273 48.6429 35.2857 48.6429H24.5714Z" stroke="#001D1E" stroke-width="2" stroke-linejoin="round"/>
<path d="M73.8572 37.9285C66.4857 36.2571 56.7143 35.4342 56.7143 42.2142C56.7143 50.5842 71.7143 48.6385 71.7143 57.2142C71.7143 65.7899 58.9343 63.3599 52.4286 61.4999" stroke="#001D1E" stroke-width="2" stroke-linejoin="round"/>
<path d="M1 14.3571C1 10.9472 2.35459 7.67695 4.76577 5.26577C7.17695 2.85459 10.4472 1.5 13.8571 1.5H78.1429C81.5528 1.5 84.823 2.85459 87.2342 5.26577C89.6454 7.67695 91 10.9472 91 14.3571V78.6429C91 82.0528 89.6454 85.323 87.2342 87.7342C84.823 90.1454 81.5528 91.5 78.1429 91.5H13.8571C10.4472 91.5 7.17695 90.1454 4.76577 87.7342C2.35459 85.323 1 82.0528 1 78.6429V14.3571Z" stroke="#001D1E" stroke-width="2" stroke-linejoin="round"/>
</g>
</svg>
