<svg width="102" height="93" viewBox="0 0 102 93" fill="none" xmlns="http://www.w3.org/2000/svg">
<path d="M1 46.4994C1 49.1038 2.29329 51.6827 4.80602 54.0889C7.31876 56.4951 11.0017 58.6814 15.6447 60.523C20.2876 62.3646 25.7995 63.8255 31.8658 64.8221C37.9321 65.8188 44.4339 66.3318 51 66.3318C57.5661 66.3318 64.0679 65.8188 70.1342 64.8221C76.2005 63.8255 81.7124 62.3646 86.3553 60.523C90.9983 58.6814 94.6812 56.4951 97.194 54.0889C99.7067 51.6827 101 49.1038 101 46.4994C101 43.895 99.7067 41.316 97.194 38.9099C94.6812 36.5037 90.9983 34.3174 86.3553 32.4758C81.7124 30.6342 76.2005 29.1733 70.1342 28.1766C64.0679 27.18 57.5661 26.667 51 26.667C44.4339 26.667 37.9321 27.18 31.8658 28.1766C25.7995 29.1733 20.2876 30.6342 15.6447 32.4758C11.0017 34.3174 7.31876 36.5037 4.80602 38.9099C2.29329 41.316 1 43.895 1 46.4994Z" stroke="black" stroke-width="2" stroke-linecap="round" stroke-linejoin="round"/>
<path d="M26.0013 90.3914C28.2264 91.6936 31.0764 91.8478 34.3885 90.8451C37.7006 89.8423 41.41 87.7024 45.3048 84.5474C49.1997 81.3924 53.2037 77.2841 57.0884 72.4572C60.9731 67.6302 64.6622 62.1791 67.9453 56.415C71.2283 50.651 74.041 44.6868 76.2226 38.8632C78.4042 33.0396 79.9121 27.4705 80.6602 22.4738C81.4083 17.4772 81.3818 13.151 80.5825 9.74208C79.7831 6.33319 78.2264 3.90842 76.0013 2.60621C73.7762 1.30399 70.9262 1.14983 67.6141 2.15254C64.302 3.15526 60.5926 5.2952 56.6978 8.4502C52.8029 11.6052 48.7988 15.7135 44.9142 20.5404C41.0295 25.3674 37.3403 30.8185 34.0573 36.5826C30.7742 42.3466 27.9616 48.3108 25.78 54.1344C23.5983 59.958 22.0905 65.5271 21.3424 70.5237C20.5943 75.5204 20.6207 79.8466 21.4201 83.2555C22.2195 86.6644 23.7762 89.0892 26.0013 90.3914Z" stroke="black" stroke-width="2" stroke-linecap="round" stroke-linejoin="round"/>
<path d="M34.0574 56.4171C37.3404 62.1812 41.0296 67.6323 44.9142 72.4593C48.7989 77.2863 52.803 81.3945 56.6978 84.5495C60.5927 87.7046 64.3021 89.8445 67.6142 90.8473C70.9263 91.85 73.7763 91.6958 76.0014 90.3936C78.2265 89.0914 79.7832 86.6666 80.5826 83.2577C81.382 79.8488 81.4084 75.5225 80.6603 70.5259C79.9122 65.5293 78.4043 59.9602 76.2227 54.1365C74.041 48.3129 71.2284 42.3487 67.9453 36.5847C64.6623 30.8206 60.9731 25.3695 57.0884 20.5425C53.2038 15.7155 49.1997 11.6072 45.3048 8.45222C41.41 5.2972 37.7006 3.15724 34.3885 2.15451C31.0764 1.15178 28.2264 1.30593 26.0013 2.60815C23.7761 3.91036 22.2195 6.33515 21.4201 9.74406C20.6207 13.153 20.5943 17.4792 21.3424 22.4759C22.0905 27.4725 23.5984 33.0416 25.78 38.8653C27.9617 44.6889 30.7743 50.653 34.0574 56.4171Z" stroke="black" stroke-width="2" stroke-linecap="round" stroke-linejoin="round"/>
<path d="M44.4782 46.4995C44.4782 48.2528 45.1653 49.9342 46.3884 51.174C47.6114 52.4138 49.2703 53.1103 50.9999 53.1103C52.7296 53.1103 54.3885 52.4138 55.6115 51.174C56.8346 49.9342 57.5217 48.2528 57.5217 46.4995C57.5217 44.7462 56.8346 43.0647 55.6115 41.8249C54.3885 40.5852 52.7296 39.8887 50.9999 39.8887C49.2703 39.8887 47.6114 40.5852 46.3884 41.8249C45.1653 43.0647 44.4782 44.7462 44.4782 46.4995Z" stroke="black" stroke-width="2" stroke-linecap="round" stroke-linejoin="round"/>
</svg>
