<svg width="92" height="93" viewBox="0 0 92 93" fill="none" xmlns="http://www.w3.org/2000/svg">
<path d="M16.8667 1H75.4477C83.9654 1 91 8.24053 91 17.1614V75.8388C91 84.7595 83.9654 92 75.4477 92H16.5525C8.03462 92 1 84.7595 1 75.8386V17.4872C1 8.36723 8.15698 1 16.8667 1Z" stroke="#001D1E" stroke-width="2"/>
<path d="M67.5441 43.6504L61.4519 41.9059L61.5003 40.6041L61.5224 40.0093L61.0102 39.7063L46.5092 31.1265L46.0007 30.8257L45.4919 31.1259L36.25 36.5785L34.3582 37.6946L36.4422 38.3885L67.5441 48.7449V59.5568L45.4347 72.4365L24.4559 59.4934V49.3206L30.2967 51.2204L30.1919 52.851L30.1519 53.4717L30.6911 53.7819L45.4626 62.2814L45.9881 62.5837L46.4993 62.2576L55.5478 56.4842L57.3223 55.352L55.3236 54.6917L24.4559 44.4947V33.6725L46.0377 20.5689L67.5441 33.6715V43.6504Z" stroke="#001D1E" stroke-width="2"/>
</svg>
